<svg xmlns="http://www.w3.org/2000/svg" viewBox="0 0 640 510" role="img" aria-labelledby="title desc"><title id="title">Architettura funzionale</title><desc id="desc">Motore e configurazione → Installazione al banco → Accensione controllata → Misure e registrazione → Analisi e accettazione → Integrazione sul veicolo</desc><defs><marker id="arrow" viewBox="0 0 10 10" refX="9" refY="5" markerWidth="6" markerHeight="6" orient="auto-start-reverse"><path d="M 0 0 L 10 5 L 0 10 Z" fill="#5ce0d5"/></marker></defs><style>svg{background:#101e29}rect{fill:#1e3442;stroke:#5ce0d5;stroke-width:1.5}text{font:17px Arial,sans-serif;fill:#f4f5f0;dominant-baseline:middle}.small{font-size:14px;fill:#c6d7dc}path{fill:none;stroke:#5ce0d5;stroke-width:2.5}.outline{fill:#2d4551;stroke:#f4f5f0}.tank{fill:#285861}.fire{fill:#eeb369;stroke:#eeb369}.earth{fill:#285c73;stroke:#7bcbdf}.orbit{stroke-dasharray:6 8;stroke:#8096a0}.accent{stroke:#eeb369}</style><text x="28" y="28">McGregor</text><rect x="37" y="75" width="256" height="70" rx="9"/><text x="165" y="110" text-anchor="middle">Motore e configurazione</text><path  d="M 293 110 L 347 110" marker-end="url(#arrow)"/><rect x="347" y="75" width="256" height="70" rx="9"/><text x="475" y="110" text-anchor="middle">Installazione al banco</text><path class="accent" d="M 475 145 L 475 172 L 165 172 L 165 205" marker-end="url(#arrow)"/><rect x="37" y="205" width="256" height="70" rx="9"/><text x="165" y="240" text-anchor="middle">Accensione controllata</text><path  d="M 293 240 L 347 240" marker-end="url(#arrow)"/><rect x="347" y="205" width="256" height="70" rx="9"/><text x="475" y="240" text-anchor="middle">Misure e registrazione</text><path class="accent" d="M 475 275 L 475 302 L 165 302 L 165 335" marker-end="url(#arrow)"/><rect x="37" y="335" width="256" height="70" rx="9"/><text x="165" y="370" text-anchor="middle">Analisi e accettazione</text><path  d="M 293 370 L 347 370" marker-end="url(#arrow)"/><rect x="347" y="335" width="256" height="70" rx="9"/><text x="475" y="370" text-anchor="middle">Integrazione sul veicolo</text><text class="small" x="320" y="496" text-anchor="middle">Schema didattico originale · non in scala</text></svg>