<svg xmlns="http://www.w3.org/2000/svg" viewBox="0 0 900 690" role="img" aria-labelledby="title desc"><title id="title">Il costo cresce quando il nodo resta vuoto</title><desc id="desc">Grafico didattico calcolato. Investimento e vita costanti; valore 1 a utilizzo 100%. Modello didattico senza prezzi o prestazioni SpaceX.</desc><rect width="900" height="690" fill="#0c1520"/><g font-family="Segoe UI,Arial,sans-serif"><text x="40" y="58" fill="#f5b941" font-size="32" text-anchor="start">Il costo cresce quando il nodo resta vuoto</text><path d="M115 495.0 h725" stroke="#293b49"/><text x="97" y="503.0" fill="#aab4be" font-size="23" text-anchor="end">0</text><path d="M115 403.75 h725" stroke="#293b49"/><text x="97" y="411.75" fill="#aab4be" font-size="23" text-anchor="end">1</text><path d="M115 312.5 h725" stroke="#293b49"/><text x="97" y="320.5" fill="#aab4be" font-size="23" text-anchor="end">3</text><path d="M115 221.25 h725" stroke="#293b49"/><text x="97" y="229.25" fill="#aab4be" font-size="23" text-anchor="end">4</text><path d="M115 130.0 h725" stroke="#293b49"/><text x="97" y="138.0" fill="#aab4be" font-size="23" text-anchor="end">6</text><path d="M115 130 v365 h725" fill="none" stroke="#aab4be" stroke-width="2"/><polyline points="115.00,169.11 160.31,234.29 205.62,277.74 250.94,308.78 296.25,332.05 341.56,350.16 386.88,364.64 432.19,376.49 477.50,386.37 522.81,394.73 568.12,401.89 613.44,408.10 658.75,413.53 704.06,418.32 749.38,422.58 794.69,426.39 840.00,429.82" fill="none" stroke="#67c7ff" stroke-width="5"/><text x="115.0" y="533" fill="#dce2e7" font-size="23" text-anchor="middle">20</text><text x="296.25" y="533" fill="#dce2e7" font-size="23" text-anchor="middle">40</text><text x="477.5" y="533" fill="#dce2e7" font-size="23" text-anchor="middle">60</text><text x="658.75" y="533" fill="#dce2e7" font-size="23" text-anchor="middle">80</text><text x="840.0" y="533" fill="#dce2e7" font-size="23" text-anchor="middle">100</text><text x="40" y="103" fill="#aab4be" font-size="25" text-anchor="start">Costo relativo per lavoro utile</text><text x="470" y="566" fill="#fff" font-size="26" text-anchor="middle">Utilizzo del payload (%)</text><text x="40" y="608" fill="#aab4be" font-size="22" text-anchor="start">Investimento e vita costanti; valore 1 a utilizzo 100%.</text><text x="40" y="639" fill="#aab4be" font-size="22" text-anchor="start">Modello didattico senza prezzi o prestazioni SpaceX.</text></g></svg>