<svg xmlns="http://www.w3.org/2000/svg" viewBox="0 0 1000 600" role="img" aria-labelledby="t d"><title id="t">Starbase: geografia delle funzioni</title><desc id="d">Schema non in scala dei collegamenti fra produzione, prove e complesso di lancio. Edizione 10 ottobre 2026.</desc><defs><marker id="a" markerWidth="8" markerHeight="8" refX="7" refY="4" orient="auto"><path d="M0 0L8 4L0 8" fill="#67c7ff"/></marker></defs><rect width="1000" height="600" fill="#0c1520"/><g fill="#f3f5f7" font-family="Arial,sans-serif"><text x="40" y="48" font-size="28">STARBASE · LE FUNZIONI</text><text x="40" y="78" font-size="17" fill="#aab4be">10 ottobre 2026 · non in scala · non è una planimetria</text></g><g fill="#132433" stroke="#496a7f" stroke-width="2"><rect x="40" y="140" width="370" height="180" rx="10"/><rect x="40" y="390" width="370" height="135" rx="10"/><rect x="610" y="140" width="350" height="385" rx="10"/></g><g fill="#f3f5f7" font-family="Arial,sans-serif" font-size="21"><text x="65" y="178" fill="#f5b941">PRODUZIONE E INTEGRAZIONE</text><text x="65" y="220">Fabbrica e lavorazioni</text><text x="65" y="256">Baie verticali</text><text x="65" y="290">Controlli e modifiche</text><text x="65" y="427" fill="#f5b941">MASSEY · PROVE A TERRA</text><text x="65" y="467">Serbatoi e accensioni</text><text x="65" y="500" font-size="17">Area separata documentata dalla FAA</text><text x="635" y="178" fill="#f5b941">COMPLESSO DI LANCIO</text><text x="635" y="228">Pad 1 · prima campagna</text><text x="635" y="265">Catture del booster</text><text x="635" y="332">Pad 2 · debutto V3</text><text x="635" y="369">Flight 12, maggio 2026</text><text x="635" y="437">Torri, propellenti, scarichi</text><text x="635" y="478">Preparazione e recupero</text></g><g stroke="#67c7ff" stroke-width="4" fill="none" marker-end="url(#a)"><path d="M410 230H600"/><path d="M210 330V380"/><path d="M410 465H600"/></g><g fill="#aab4be" font-family="Arial,sans-serif" font-size="16"><text x="430" y="210">Trasporto</text><text x="430" y="440">Dopo i test</text><text x="40" y="571">Schema editoriale originale · collocazione dei riquadri funzionale, non geografica</text></g></svg>
